<svg
    xmlns="http://www.w3.org/2000/svg"
    viewBox="0 0 384 384"
    id="art_storm">
    <path
        id="cloud_outline_shadow"
        d="M 295.7 129.7 C 292 81 252.3 43.8 202.3 43.8 C 160.8 43.8 125.9 66.6 115.5 98.7 C 113.5 98.5 111.6 98.4 109.6 98.4 C 67.9 98.4 34 132.2 34 173.7 C 34 215.2 67.9 249 109.6 249 L 294.3 248.6 C 327.2 248.6 354 221.9 354 189.1 C 354 156.7 328 130.3 295.7 129.6 Z"
        fill="#000000"
        fill-opacity="0.24"/>
    <path
        id="cloud_outline"
        d="M 293.7 127.7 C 290 79 250.3 41.8 200.3 41.8 C 158.8 41.8 123.9 64.6 113.5 96.7 C 111.5 96.5 109.6 96.4 107.6 96.4 C 65.9 96.4 32 130.2 32 171.7 C 32 213.2 65.9 247 107.6 247 L 292.3 246.6 C 325.2 246.6 352 219.9 352 187.1 C 352 154.7 326 128.3 293.7 127.6 Z"
        fill="#c3c9cc"/>
    <path
        id="cloud_shadow"
        d="M 293.2 234.9 C 319.1 234.9 340.1 214 340.1 188.2 C 340.1 162.4 319.1 141.5 293.2 141.5 C 289.1 141.5 285.2 142.2 281.4 143.2 C 281.6 140.8 282.1 138.6 282.1 136.2 C 282.1 91.7 247.9 55.7 201.2 55.7 C 160.6 55.7 127.7 79.8 124.3 112.5 C 119.2 111.2 114 110.3 108.5 110.3 C 73.8 110.3 45.7 138.3 45.7 172.9 C 45.7 207.4 73.8 235.5 108.5 235.5 L 293.1 235.1 Z"
        fill="#000000"
        fill-opacity="0.24"/>
    <path
        id="cloud"
        d="M 291.2 232.9 C 317.1 232.9 338.1 212 338.1 186.2 C 338.1 160.4 317.1 139.5 291.2 139.5 C 287.1 139.5 283.2 140.2 279.4 141.2 C 279.6 138.8 280.1 136.6 280.1 134.2 C 280.1 89.7 245.9 53.7 199.2 53.7 C 158.6 53.7 125.7 77.8 122.3 110.5 C 117.2 109.2 112 108.3 106.5 108.3 C 71.8 108.3 43.7 136.3 43.7 170.9 C 43.7 205.4 71.8 233.5 106.5 233.5 L 291.1 233.1 Z"
        fill="#eeeeee"/>
    <path
        id="lightning_outline_shadow"
        d="M 221.4 266.5 L 224.9 262.2 L 232.6 249.2 L 215.3 249.2 L 175.4 249.2 L 161.9 249.2 L 165 259.8 L 175.3 303.3 L 178 314.3 L 189.1 310.1 L 191.3 309.2 L 191.8 323.6 L 193.9 380.7 L 212.6 326.8 L 227.8 282.7 L 234.9 262.2 L 221.5 266.5 Z"
        fill="#000000"
        fill-opacity="0.24"/>
    <path
        id="lightning_outline"
        d="M 219.4 264.5 L 222.9 260.2 L 230.6 247.2 L 213.3 247.2 L 173.4 247.2 L 159.9 247.2 L 163 257.8 L 173.3 301.3 L 176 312.3 L 187.1 308.1 L 189.3 307.2 L 189.8 321.6 L 191.9 378.7 L 210.6 324.8 L 225.8 280.7 L 232.9 260.2 L 219.5 264.5 Z"
        fill="#e3c216"/>
    <path
        id="lightning_shadow"
        d="M 219.916 285.258 L 201.837 288.058 L 217.397 254.438 L 175.197 254.438 L 186.07 303.467 L 202.69 299.267 L 203.8 329.91 Z"
        fill="#000000"
        fill-opacity="0.24"/>
    <path
        id="lightning"
        d="M 217.916 283.258 L 199.837 286.058 L 215.397 252.438 L 173.197 252.438 L 184.07 301.467 L 200.69 297.267 L 201.8 327.91 Z"
        fill="#e4e42e"/>
</svg>
