<svg
    xmlns="http://www.w3.org/2000/svg"
    viewBox="0 0 384 384"
    id="art_snow">
    <path
        id="snowman_outline_shadow"
        d="M 305.84 169.383 C 310.673 169.011 315.249 166.381 318.834 161.885 C 325.166 153.888 323.86 141.818 316.007 135.493 L 306.009 127.442 L 307.109 109.419 C 307.739 99.51 300.125 90.901 290.133 90.26 L 289.748 90.234 L 288.89 90.208 C 279.579 90.208 271.481 98.064 270.836 107.719 L 270.36 115.316 C 265.835 75.601 232.201 44.659 191.512 44.659 C 147.751 44.659 112.147 80.457 112.147 124.46 C 112.147 124.975 112.154 125.493 112.163 126.01 L 103.623 119.442 L 104.872 102.602 C 105.584 92.502 98.051 83.711 88.08 82.965 L 87.631 82.931 L 86.735 82.914 C 77.27 82.914 69.31 90.299 68.615 99.727 L 68.079 107.018 L 50.364 104.377 C 49.387 104.243 48.573 104.189 47.766 104.189 C 38.776 104.188 31.02 110.894 29.723 119.788 C 29.009 124.583 30.206 129.408 33.101 133.335 C 35.998 137.259 40.243 139.811 45.056 140.52 L 77.478 145.354 L 95.602 159.289 C 76.806 179.371 66.265 204.881 66.265 231.156 C 66.265 292.979 122.451 343.276 191.512 343.276 C 260.574 343.276 316.761 292.979 316.761 231.156 C 316.761 208.241 309.065 186.378 294.751 167.851 C 296.915 169.179 299.384 169.874 301.984 169.874 C 303.637 169.874 304.989 169.587 305.84 169.383 Z"
        fill="#000000"
        fill-opacity="0.24"/>
    <path
        id="snowman_outline"
        d="M 303.84 167.383 C 308.673 167.011 313.249 164.381 316.834 159.885 C 323.167 151.888 321.86 139.818 314.007 133.493 L 304.009 125.442 L 305.109 107.419 C 305.739 97.51 298.125 88.901 288.133 88.26 L 287.748 88.234 L 286.89 88.208 C 277.579 88.208 269.481 96.064 268.836 105.719 L 268.36 113.316 C 263.835 73.601 230.201 42.659 189.512 42.659 C 145.751 42.659 110.148 78.457 110.148 122.46 C 110.148 122.975 110.154 123.493 110.163 124.01 L 101.623 117.442 L 102.872 100.602 C 103.584 90.502 96.051 81.711 86.08 80.965 L 85.631 80.931 L 84.735 80.914 C 75.27 80.914 67.31 88.299 66.615 97.727 L 66.079 105.018 L 48.364 102.377 C 47.387 102.243 46.573 102.189 45.766 102.189 C 36.776 102.188 29.02 108.894 27.723 117.788 C 27.009 122.583 28.206 127.408 31.101 131.335 C 33.998 135.259 38.243 137.811 43.056 138.52 L 75.479 143.354 L 93.602 157.289 C 74.806 177.371 64.265 202.881 64.265 229.156 C 64.265 290.979 120.451 341.276 189.512 341.276 C 258.574 341.276 314.761 290.979 314.761 229.156 C 314.761 206.241 307.065 184.378 292.751 165.851 C 294.915 167.179 297.384 167.874 299.984 167.874 C 301.637 167.874 302.989 167.587 303.84 167.383 Z"
        fill="#c4cacd"/>
    <path
        id="snowman_shadow"
        d="M 309.951 144.971 L 294.964 132.964 L 296.459 108.623 C 296.672 105.266 294.127 102.577 290.771 102.363 C 287.689 102.018 284.524 105.117 284.298 108.486 L 282.761 132.867 L 262.788 152.855 C 260.446 151.226 258.147 149.55 255.659 148.083 C 258.418 140.706 259.999 132.756 259.999 124.418 C 259.999 87.053 229.721 56.763 192.37 56.763 C 155.02 56.763 124.742 87.053 124.742 124.418 C 124.742 132.756 126.323 140.706 129.08 148.083 C 127.657 148.923 126.376 149.922 124.998 150.816 L 91.344 125.072 L 93.09 101.641 C 93.328 98.284 90.806 95.307 87.45 95.057 C 84.332 94.806 81.179 97.205 80.929 100.573 L 79.424 120.948 L 48.637 116.381 C 45.365 115.939 42.212 118.177 41.723 121.511 C 41.224 124.843 43.52 127.938 46.852 128.425 L 82.592 133.727 L 114.737 158.316 C 92.579 176.558 78.6 202.381 78.6 231.169 C 78.6 286.394 129.536 331.16 192.37 331.16 C 255.204 331.16 306.14 286.394 306.14 231.169 C 306.14 203.464 293.176 178.519 272.461 160.415 L 287.792 145.072 C 287.931 145.088 288.047 145.209 288.188 145.209 C 288.32 145.209 288.45 145.209 288.594 145.209 C 289.141 145.209 289.643 144.95 290.152 144.732 L 302.336 154.493 C 303.455 155.386 304.799 155.826 306.144 155.826 C 307.929 155.826 309.702 155.04 310.903 153.541 C 312.997 150.911 312.581 147.077 309.951 144.971 Z M 193.339 256.429 C 186.611 256.429 181.155 250.971 181.155 244.24 C 181.155 237.51 186.611 232.052 193.339 232.052 C 200.068 232.052 205.523 237.51 205.523 244.24 C 205.523 250.971 200.068 256.429 193.339 256.429 Z M 193.339 207.675 C 186.611 207.675 181.155 202.217 181.155 195.486 C 181.155 188.756 186.611 183.298 193.339 183.298 C 200.068 183.298 205.523 188.756 205.523 195.486 C 205.523 202.217 200.068 207.675 193.339 207.675 Z"
        fill="#000000"
        fill-opacity="0.24"/>
    <path
        id="snowman"
        d="M 307.951 142.971 L 292.964 130.964 L 294.459 106.623 C 294.672 103.266 292.127 100.577 288.771 100.363 C 285.689 100.018 282.524 103.117 282.298 106.486 L 280.761 130.867 L 260.788 150.855 C 258.446 149.226 256.147 147.55 253.659 146.083 C 256.418 138.706 257.999 130.756 257.999 122.418 C 257.999 85.053 227.721 54.763 190.37 54.763 C 153.02 54.763 122.742 85.053 122.742 122.418 C 122.742 130.756 124.323 138.706 127.08 146.083 C 125.657 146.923 124.376 147.922 122.998 148.816 L 89.344 123.072 L 91.09 99.641 C 91.328 96.284 88.806 93.307 85.45 93.057 C 82.332 92.806 79.179 95.205 78.929 98.573 L 77.424 118.948 L 46.637 114.381 C 43.365 113.939 40.212 116.177 39.723 119.511 C 39.224 122.843 41.52 125.938 44.852 126.425 L 80.592 131.727 L 112.737 156.316 C 90.58 174.558 76.6 200.381 76.6 229.169 C 76.6 284.394 127.536 329.16 190.37 329.16 C 253.204 329.16 304.14 284.394 304.14 229.169 C 304.14 201.464 291.176 176.519 270.461 158.415 L 285.792 143.072 C 285.931 143.088 286.047 143.209 286.188 143.209 C 286.32 143.209 286.45 143.209 286.594 143.209 C 287.141 143.209 287.643 142.95 288.152 142.732 L 300.336 152.493 C 301.455 153.386 302.799 153.826 304.144 153.826 C 305.929 153.826 307.702 153.04 308.903 151.541 C 310.997 148.911 310.581 145.077 307.951 142.971 Z M 191.339 254.429 C 184.611 254.429 179.155 248.971 179.155 242.24 C 179.155 235.51 184.611 230.052 191.339 230.052 C 198.068 230.052 203.523 235.51 203.523 242.24 C 203.523 248.971 198.068 254.429 191.339 254.429 Z M 191.339 205.675 C 184.611 205.675 179.155 200.217 179.155 193.486 C 179.155 186.756 184.611 181.298 191.339 181.298 C 198.068 181.298 203.523 186.756 203.523 193.486 C 203.523 200.217 198.068 205.675 191.339 205.675 Z"
        fill="#eeeeee"/>
    <path
        id="carrot_shadow"
        d="M 194.488 112.668 C 201.629 118.846 192.708 127.595 187.685 131.695 C 186.273 133.249 184.45 134.542 182.743 135.804 C 182.661 135.903 182.582 135.955 182.489 136.011 C 174.596 141.948 164.987 148.421 156.692 154.821 C 154.508 156.505 152.321 158.406 150.092 159.684 C 149.462 160.053 148.77 160.363 147.932 160.123 C 150.792 153.679 156.906 146.193 162.296 137.57 C 169.262 126.436 176.651 109.944 186.076 108.919 C 188.291 108.682 190.341 109.741 191.876 111.016 C 191.834 111.09 191.802 111.145 191.76 111.218 C 191.896 111.321 191.968 111.533 192.203 111.718 C 192.334 111.915 192.596 111.968 192.836 111.997 C 192.877 112.032 192.913 112.054 192.954 112.089 C 192.958 112.103 192.98 112.129 192.984 112.143 C 193.211 112.299 193.499 112.562 193.8 112.528 C 194.005 112.658 194.243 112.795 194.488 112.668 Z"
        fill="#000000"
        fill-opacity="0.24"/>
    <path
        id="carrot"
        d="M 193.488 111.668 C 200.629 117.846 191.708 126.595 186.685 130.695 C 185.273 132.249 183.45 133.542 181.743 134.804 C 181.661 134.903 181.582 134.955 181.489 135.011 C 173.596 140.948 163.987 147.421 155.692 153.821 C 153.508 155.505 151.321 157.406 149.092 158.684 C 148.462 159.053 147.77 159.363 146.931 159.123 C 149.792 152.679 155.905 145.193 161.296 136.57 C 168.262 125.436 175.651 108.944 185.076 107.919 C 187.291 107.682 189.341 108.741 190.876 110.016 C 190.834 110.09 190.802 110.145 190.76 110.218 C 190.896 110.321 190.968 110.533 191.203 110.718 C 191.334 110.915 191.596 110.968 191.836 110.997 C 191.877 111.032 191.913 111.054 191.954 111.089 C 191.958 111.103 191.98 111.128 191.984 111.143 C 192.211 111.299 192.499 111.562 192.8 111.528 C 193.005 111.658 193.243 111.795 193.488 111.668 Z"
        fill="#e5962e"/>
</svg>
