<svg
    xmlns="http://www.w3.org/2000/svg"
    viewBox="0 0 384 384"
    id="art_rain">
    <path
        id="raindrops_outline_shadow"
        d="M 329.9 256.9 C 325.9 252.9 320.6 250.7 315 250.7 C 309.4 250.7 304.1 252.9 300.1 256.9 L 278.6 278.7 C 281 271.3 279.5 262.8 273.7 256.9 C 269.7 252.9 264.4 250.7 258.8 250.7 C 253.2 250.7 247.9 252.9 243.9 256.9 L 222.6 278.5 C 223.3 276.4 223.7 274.3 223.7 272 C 223.7 266.3 221.5 261 217.5 256.9 C 213.5 252.9 208.2 250.7 202.6 250.7 C 197 250.7 191.7 252.9 187.7 256.9 L 167.9 277 C 167.2 277.7 166.7 278.4 166.2 279.1 C 168.8 271.6 167.4 262.9 161.4 256.9 C 157.4 252.9 152.1 250.7 146.5 250.7 C 140.9 250.7 135.6 252.9 131.6 256.9 L 110.3 278.5 C 111 276.4 111.4 274.3 111.4 272 C 111.4 266.3 109.2 261 105.2 256.9 C 101.2 252.9 95.9 250.7 90.3 250.7 C 84.7 250.7 79.4 252.9 75.4 256.9 L 55.6 277 C 51.6 281 49.4 286.4 49.4 292.1 C 49.4 297.8 51.6 303.1 55.6 307.2 C 59.6 311.2 64.9 313.4 70.5 313.4 C 72.7 313.4 74.8 313 76.9 312.3 L 71.9 317.4 C 67.9 321.4 65.7 326.8 65.7 332.5 C 65.7 338.2 67.9 343.5 71.9 347.6 C 75.9 351.6 81.2 353.8 86.8 353.8 C 92.4 353.8 97.7 351.6 101.7 347.6 L 126.5 322.4 C 125.8 324.5 125.4 326.6 125.4 328.9 C 125.4 334.6 127.6 339.9 131.6 344 C 135.6 348 140.9 350.2 146.5 350.2 C 152.1 350.2 157.4 348 161.4 344 L 175.4 329.8 C 179.4 325.8 181.6 320.4 181.6 314.7 C 181.6 314.2 181.5 313.8 181.5 313.3 C 181.9 313.3 182.4 313.4 182.8 313.4 C 185 313.4 187.1 313 189.2 312.3 L 184.2 317.4 C 180.2 321.4 178 326.8 178 332.5 C 178 338.2 180.2 343.5 184.2 347.6 C 188.2 351.6 193.5 353.8 199.1 353.8 C 204.7 353.8 210 351.6 214 347.6 L 252.9 308.2 C 250.5 315.6 252 324.1 257.8 330 C 261.8 334 267.1 336.2 272.7 336.2 C 278.3 336.2 283.6 334 287.6 330 L 329.9 287.2 C 333.9 283.2 336.1 277.8 336.1 272.1 C 336.1 266.4 333.9 261.1 329.9 257 Z M 162.1 293.4 C 161.7 293.4 161.2 293.3 160.8 293.3 C 158.6 293.3 156.5 293.7 154.4 294.4 L 161.7 287.1 C 162.5 286.3 162.9 285.2 163.6 284.3 C 162.6 286.8 162.1 289.4 162.1 292.2 C 162.1 292.7 162.2 293.1 162.2 293.6 Z"
        fill="#000000"
        fill-opacity="0.24"/>
    <path
        id="raindrops_outline"
        d="M 329.9 256.9 C 325.9 252.9 320.6 250.7 315 250.7 C 309.4 250.7 304.1 252.9 300.1 256.9 L 278.6 278.7 C 281 271.3 279.5 262.8 273.7 256.9 C 269.7 252.9 264.4 250.7 258.8 250.7 C 253.2 250.7 247.9 252.9 243.9 256.9 L 222.6 278.5 C 223.3 276.4 223.7 274.3 223.7 272 C 223.7 266.3 221.5 261 217.5 256.9 C 213.5 252.9 208.2 250.7 202.6 250.7 C 197 250.7 191.7 252.9 187.7 256.9 L 167.9 277 C 167.2 277.7 166.7 278.4 166.2 279.1 C 168.8 271.6 167.4 262.9 161.4 256.9 C 157.4 252.9 152.1 250.7 146.5 250.7 C 140.9 250.7 135.6 252.9 131.6 256.9 L 110.3 278.5 C 111 276.4 111.4 274.3 111.4 272 C 111.4 266.3 109.2 261 105.2 256.9 C 101.2 252.9 95.9 250.7 90.3 250.7 C 84.7 250.7 79.4 252.9 75.4 256.9 L 55.6 277 C 51.6 281 49.4 286.4 49.4 292.1 C 49.4 297.8 51.6 303.1 55.6 307.2 C 59.6 311.2 64.9 313.4 70.5 313.4 C 72.7 313.4 74.8 313 76.9 312.3 L 71.9 317.4 C 67.9 321.4 65.7 326.8 65.7 332.5 C 65.7 338.2 67.9 343.5 71.9 347.6 C 75.9 351.6 81.2 353.8 86.8 353.8 C 92.4 353.8 97.7 351.6 101.7 347.6 L 126.5 322.4 C 125.8 324.5 125.4 326.6 125.4 328.9 C 125.4 334.6 127.6 339.9 131.6 344 C 135.6 348 140.9 350.2 146.5 350.2 C 152.1 350.2 157.4 348 161.4 344 L 175.4 329.8 C 179.4 325.8 181.6 320.4 181.6 314.7 C 181.6 314.2 181.5 313.8 181.5 313.3 C 181.9 313.3 182.4 313.4 182.8 313.4 C 185 313.4 187.1 313 189.2 312.3 L 184.2 317.4 C 180.2 321.4 178 326.8 178 332.5 C 178 338.2 180.2 343.5 184.2 347.6 C 188.2 351.6 193.5 353.8 199.1 353.8 C 204.7 353.8 210 351.6 214 347.6 L 252.9 308.2 C 250.5 315.6 252 324.1 257.8 330 C 261.8 334 267.1 336.2 272.7 336.2 C 278.3 336.2 283.6 334 287.6 330 L 329.9 287.2 C 333.9 283.2 336.1 277.8 336.1 272.1 C 336.1 266.4 333.9 261.1 329.9 257 Z M 162.1 293.4 C 161.7 293.4 161.2 293.3 160.8 293.3 C 158.6 293.3 156.5 293.7 154.4 294.4 L 161.7 287.1 C 162.5 286.3 162.9 285.2 163.6 284.3 C 162.6 286.8 162.1 289.4 162.1 292.2 C 162.1 292.7 162.2 293.1 162.2 293.6 Z"
        fill="#3083b5"/>
    <path
        id="raindrops_shadow"
        d="M 93.4 266.8 C 91.6 266.8 89.8 267.5 88.5 268.8 L 68.8 288.4 C 66.1 291.1 66.1 295.5 68.8 298.2 C 70.2 299.6 71.9 300.2 73.7 300.2 C 75.5 300.2 77.3 299.5 78.6 298.2 L 98.3 278.6 C 101 275.9 101 271.5 98.3 268.8 C 96.9 267.4 95.2 266.8 93.4 266.8 Z M 204.6 266.8 C 202.8 266.8 201 267.5 199.7 268.8 L 180 288.4 C 177.3 291.1 177.3 295.5 180 298.2 C 181.4 299.6 183.1 300.2 184.9 300.2 C 186.7 300.2 188.5 299.5 189.8 298.2 L 209.5 278.6 C 212.2 275.9 212.2 271.5 209.5 268.8 C 208.1 267.4 206.4 266.8 204.6 266.8 Z M 315.8 266.8 C 314 266.8 312.2 267.5 310.9 268.8 L 269 310.6 C 266.3 313.3 266.3 317.7 269 320.4 C 270.4 321.8 272.1 322.4 273.9 322.4 C 275.7 322.4 277.5 321.7 278.8 320.4 L 320.7 278.6 C 323.4 275.9 323.4 271.5 320.7 268.8 C 319.3 267.4 317.6 266.8 315.8 266.8 Z M 162.9 308.4 C 161.1 308.4 159.3 309.1 158 310.4 L 144.1 324.3 C 141.4 327 141.4 331.4 144.1 334.1 C 145.5 335.5 147.2 336.1 149 336.1 C 150.8 336.1 152.6 335.4 153.9 334.1 L 167.8 320.2 C 170.5 317.5 170.5 313.1 167.8 310.4 C 166.4 309 164.7 308.4 162.9 308.4 Z M 149 266.8 C 147.2 266.8 145.4 267.5 144.1 268.8 L 85 327.8 C 82.3 330.5 82.3 334.9 85 337.6 C 86.4 339 88.1 339.6 89.9 339.6 C 91.7 339.6 93.5 338.9 94.8 337.6 L 153.9 278.6 C 156.6 275.9 156.6 271.5 153.9 268.8 C 152.5 267.4 150.8 266.8 149 266.8 Z M 260.2 266.8 C 258.4 266.8 256.6 267.5 255.3 268.8 L 196.2 327.8 C 193.5 330.5 193.5 334.9 196.2 337.6 C 197.6 339 199.3 339.6 201.1 339.6 C 202.9 339.6 204.7 338.9 206 337.6 L 265.1 278.6 C 267.8 275.9 267.8 271.5 265.1 268.8 C 263.7 267.4 262 266.8 260.2 266.8 Z"
        fill="#000000"
        fill-opacity="0.24"/>
    <path
        id="raindrops"
        d="M 91.4 264.8 C 89.6 264.8 87.8 265.5 86.5 266.8 L 66.8 286.4 C 64.1 289.1 64.1 293.5 66.8 296.2 C 68.2 297.6 69.9 298.2 71.7 298.2 C 73.5 298.2 75.3 297.5 76.6 296.2 L 96.3 276.6 C 99 273.9 99 269.5 96.3 266.8 C 94.9 265.4 93.2 264.8 91.4 264.8 Z M 202.6 264.8 C 200.8 264.8 199 265.5 197.7 266.8 L 178 286.4 C 175.3 289.1 175.3 293.5 178 296.2 C 179.4 297.6 181.1 298.2 182.9 298.2 C 184.7 298.2 186.5 297.5 187.8 296.2 L 207.5 276.6 C 210.2 273.9 210.2 269.5 207.5 266.8 C 206.1 265.4 204.4 264.8 202.6 264.8 Z M 313.8 264.8 C 312 264.8 310.2 265.5 308.9 266.8 L 267 308.6 C 264.3 311.3 264.3 315.7 267 318.4 C 268.4 319.8 270.1 320.4 271.9 320.4 C 273.7 320.4 275.5 319.7 276.8 318.4 L 318.7 276.6 C 321.4 273.9 321.4 269.5 318.7 266.8 C 317.3 265.4 315.6 264.8 313.8 264.8 Z M 160.9 306.4 C 159.1 306.4 157.3 307.1 156 308.4 L 142.1 322.3 C 139.4 325 139.4 329.4 142.1 332.1 C 143.5 333.5 145.2 334.1 147 334.1 C 148.8 334.1 150.6 333.4 151.9 332.1 L 165.8 318.2 C 168.5 315.5 168.5 311.1 165.8 308.4 C 164.4 307 162.7 306.4 160.9 306.4 Z M 147 264.8 C 145.2 264.8 143.4 265.5 142.1 266.8 L 83 325.8 C 80.3 328.5 80.3 332.9 83 335.6 C 84.4 337 86.1 337.6 87.9 337.6 C 89.7 337.6 91.5 336.9 92.8 335.6 L 151.9 276.6 C 154.6 273.9 154.6 269.5 151.9 266.8 C 150.5 265.4 148.8 264.8 147 264.8 Z M 258.2 264.8 C 256.4 264.8 254.6 265.5 253.3 266.8 L 194.2 325.8 C 191.5 328.5 191.5 332.9 194.2 335.6 C 195.6 337 197.3 337.6 199.1 337.6 C 200.9 337.6 202.7 336.9 204 335.6 L 263.1 276.6 C 265.8 273.9 265.8 269.5 263.1 266.8 C 261.7 265.4 260 264.8 258.2 264.8 Z"
        fill="#5ab8e2"/>
    <path
        id="cloud_outline_shadow"
        d="M 295.7 119 C 292 70.3 252.3 33.1 202.3 33.1 C 160.8 33.1 125.9 55.9 115.5 88 C 113.5 87.8 111.6 87.7 109.6 87.7 C 67.9 87.7 34 121.5 34 163 C 34 204.5 67.9 238.3 109.6 238.3 L 294.3 237.9 C 327.2 237.9 354 211.2 354 178.4 C 354 146 328 119.6 295.7 118.9 Z"
        fill="#000000"
        fill-opacity="0.24"/>
    <path
        id="cloud_outline"
        d="M 293.7 117 C 290 68.3 250.3 31.1 200.3 31.1 C 158.8 31.1 123.9 53.9 113.5 86 C 111.5 85.8 109.6 85.7 107.6 85.7 C 65.9 85.7 32 119.5 32 161 C 32 202.5 65.9 236.3 107.6 236.3 L 292.3 235.9 C 325.2 235.9 352 209.2 352 176.4 C 352 144 326 117.6 293.7 116.9 Z"
        fill="#c3c9cc"/>
    <path
        id="cloud_shadow"
        d="M 293.2 224.2 C 319.1 224.2 340.1 203.3 340.1 177.5 C 340.1 151.7 319.1 130.8 293.2 130.8 C 289.1 130.8 285.2 131.5 281.4 132.5 C 281.6 130.1 282.1 127.9 282.1 125.5 C 282.1 81 247.9 45 201.2 45 C 160.6 45 127.7 69.1 124.3 101.8 C 119.2 100.5 114 99.6 108.5 99.6 C 73.8 99.6 45.7 127.6 45.7 162.2 C 45.7 196.7 73.8 224.8 108.5 224.8 L 293.1 224.4 Z"
        fill="#000000"
        fill-opacity="0.24"/>
    <path
        id="cloud"
        d="M 291.2 222.2 C 317.1 222.2 338.1 201.3 338.1 175.5 C 338.1 149.7 317.1 128.8 291.2 128.8 C 287.1 128.8 283.2 129.5 279.4 130.5 C 279.6 128.1 280.1 125.9 280.1 123.5 C 280.1 79 245.9 43 199.2 43 C 158.6 43 125.7 67.1 122.3 99.8 C 117.2 98.5 112 97.6 106.5 97.6 C 71.8 97.6 43.7 125.6 43.7 160.2 C 43.7 194.7 71.8 222.8 106.5 222.8 L 291.1 222.4 Z"
        fill="#eeeeee"/>
</svg>
