<svg
    xmlns="http://www.w3.org/2000/svg"
    viewBox="0 0 384 384"
    id="art_fog">
    <path
        id="foggy_sun_outline_shadow"
        d="M 344.2 220.6 L 322.5 220.6 C 323.3 218.4 323.8 216.2 323.8 213.7 C 323.8 211.3 323.3 209 322.5 206.8 L 344.2 206.8 C 355.5 206.8 364.7 197.6 364.7 186.2 C 364.7 174.8 355.5 165.6 344.2 165.6 L 332.5 165.6 C 333.2 162.8 333.4 159.9 332.9 157.5 C 317.7 88.4 264.7 45.5 191 45.5 C 117.4 45.5 64.3 86.7 49.1 155.8 C 48.5 158.7 48.8 163.4 50 167.1 C 42.4 170.1 36.9 177.5 36.9 186.2 C 36.9 188.9 37.5 191.5 38.4 193.9 C 29.7 196.3 23.2 204.2 23.2 213.7 C 23.2 225.1 32.4 234.3 43.7 234.3 L 51.8 234.3 C 51 236.5 50.5 238.7 50.5 241.2 C 50.5 248.2 54 254.4 59.3 258.1 C 59.4 259.7 59.9 261.4 60.8 263.2 C 86.8 311.3 137.8 341.6 190.8 341.6 C 243.8 341.6 294.9 310.1 320.8 261.9 C 320.8 261.9 320.8 261.8 320.8 261.8 L 343.9 261.8 C 355.2 261.8 364.4 252.6 364.4 241.2 C 364.4 229.8 355.2 220.6 343.9 220.6 Z"
        fill="#000000"
        fill-opacity="0.24"/>
    <path
        id="foggy_sun_outline"
        d="M 342.2 218.6 L 320.5 218.6 C 321.3 216.4 321.8 214.2 321.8 211.7 C 321.8 209.3 321.3 207 320.5 204.8 L 342.2 204.8 C 353.5 204.8 362.7 195.6 362.7 184.2 C 362.7 172.8 353.5 163.6 342.2 163.6 L 330.5 163.6 C 331.2 160.8 331.4 157.9 330.9 155.5 C 315.7 86.4 262.7 43.5 189 43.5 C 115.4 43.5 62.3 84.7 47.1 153.8 C 46.5 156.7 46.8 161.4 48 165.1 C 40.4 168.1 34.9 175.5 34.9 184.2 C 34.9 186.9 35.5 189.5 36.4 191.9 C 27.7 194.3 21.2 202.2 21.2 211.7 C 21.2 223.1 30.4 232.3 41.7 232.3 L 49.8 232.3 C 49 234.5 48.5 236.7 48.5 239.2 C 48.5 246.2 52 252.4 57.3 256.1 C 57.4 257.7 57.9 259.4 58.8 261.2 C 84.8 309.3 135.8 339.6 188.8 339.6 C 241.8 339.6 292.9 308.1 318.8 259.9 C 318.8 259.9 318.8 259.8 318.8 259.8 L 341.9 259.8 C 353.2 259.8 362.4 250.6 362.4 239.2 C 362.4 227.8 353.2 218.6 341.9 218.6 Z"
        fill="#c3c9cc"/>
    <path
        id="foggy_sun_shadow"
        d="M 190.6 57.9 C 128.5 57.9 76.5 100.5 61.3 158.2 L 319.9 158.2 C 304.7 100.5 252.7 57.9 190.6 57.9 Z M 56.3 172 C 52.5 172 49.4 175.1 49.4 178.9 C 49.4 182.7 52.5 185.8 56.3 185.8 L 344.7 185.8 C 348.5 185.8 351.6 182.7 351.6 178.9 C 351.6 175.1 348.5 172 344.7 172 Z M 42.6 199.7 C 38.8 199.7 35.7 202.8 35.7 206.6 C 35.7 210.4 38.8 213.5 42.6 213.5 L 138.7 213.5 C 142.5 213.5 145.6 210.4 145.6 206.6 C 145.6 202.8 142.5 199.7 138.7 199.7 Z M 166.2 199.7 C 162.4 199.7 159.3 202.8 159.3 206.6 C 159.3 210.4 162.4 213.5 166.2 213.5 L 303.5 213.5 C 307.3 213.5 310.4 210.4 310.4 206.6 C 310.4 202.8 307.3 199.7 303.5 199.7 Z M 70.1 227.4 C 66.3 227.4 63.2 230.5 63.2 234.3 C 63.2 238.1 66.3 241.2 70.1 241.2 L 207.4 241.2 C 211.2 241.2 214.3 238.1 214.3 234.3 C 214.3 230.5 211.2 227.4 207.4 227.4 Z M 234.9 227.4 C 231.1 227.4 228 230.5 228 234.3 C 228 238.1 231.1 241.2 234.9 241.2 L 344.8 241.2 C 348.6 241.2 351.7 238.1 351.7 234.3 C 351.7 230.5 348.6 227.4 344.8 227.4 Z M 72 255.1 C 94.3 298.2 139.1 327.7 190.7 327.7 C 242.3 327.7 287.1 298.2 309.4 255.1 Z"
        fill="#000000"
        fill-opacity="0.24"/>
    <path
        id="foggy_sun"
        d="M 188.6 55.9 C 126.5 55.9 74.5 98.5 59.3 156.2 L 317.9 156.2 C 302.7 98.5 250.7 55.9 188.6 55.9 Z M 54.3 170 C 50.5 170 47.4 173.1 47.4 176.9 C 47.4 180.7 50.5 183.8 54.3 183.8 L 342.7 183.8 C 346.5 183.8 349.6 180.7 349.6 176.9 C 349.6 173.1 346.5 170 342.7 170 Z M 40.6 197.7 C 36.8 197.7 33.7 200.8 33.7 204.6 C 33.7 208.4 36.8 211.5 40.6 211.5 L 136.7 211.5 C 140.5 211.5 143.6 208.4 143.6 204.6 C 143.6 200.8 140.5 197.7 136.7 197.7 Z M 164.2 197.7 C 160.4 197.7 157.3 200.8 157.3 204.6 C 157.3 208.4 160.4 211.5 164.2 211.5 L 301.5 211.5 C 305.3 211.5 308.4 208.4 308.4 204.6 C 308.4 200.8 305.3 197.7 301.5 197.7 Z M 68.1 225.4 C 64.3 225.4 61.2 228.5 61.2 232.3 C 61.2 236.1 64.3 239.2 68.1 239.2 L 205.4 239.2 C 209.2 239.2 212.3 236.1 212.3 232.3 C 212.3 228.5 209.2 225.4 205.4 225.4 Z M 232.9 225.4 C 229.1 225.4 226 228.5 226 232.3 C 226 236.1 229.1 239.2 232.9 239.2 L 342.8 239.2 C 346.6 239.2 349.7 236.1 349.7 232.3 C 349.7 228.5 346.6 225.4 342.8 225.4 Z M 70 253.1 C 92.3 296.2 137.1 325.7 188.7 325.7 C 240.3 325.7 285.1 296.2 307.4 253.1 Z"
        fill="#eeeeee"/>
</svg>
