<svg
    xmlns="http://www.w3.org/2000/svg"
    viewBox="0 0 384 384"
    id="art_clear">
    <path
        id="bottom_shadow"
        d="M 299.5 299.6 L 285.9 250.3 C 291.8 240.8 296.1 230.3 298.8 219.1 L 343.3 194.3 L 298.8 169.1 C 296.1 157.7 291.6 147 285.6 137.3 L 299.5 88.5 L 250.3 102.1 C 240.9 96.3 230.6 92 219.7 89.3 L 194 44.7 L 169.4 89.1 C 157.9 91.8 147.2 96.3 137.4 102.3 L 88.5 88.4 L 102.1 137.6 C 96.2 147.1 91.8 157.6 89.1 168.8 L 44.6 194 L 89 218.8 C 91.7 230.2 96.1 240.8 102.1 250.5 L 88.5 299.7 L 137.4 285.8 C 147.1 291.8 157.8 296.3 169.2 299 L 194 343.4 L 219.2 298.9 C 230.4 296.2 241 291.8 250.6 285.8 L 299.5 299.7 Z"
        fill="#000000"
        fill-opacity="0.24"/>
    <path
        id="bottom"
        d="M 297.5 297.6 L 283.9 248.3 C 289.8 238.8 294.1 228.3 296.8 217.1 L 341.3 192.3 L 296.8 167.1 C 294.1 155.7 289.6 145 283.6 135.3 L 297.5 86.5 L 248.3 100.1 C 238.9 94.3 228.6 90 217.7 87.3 L 192 42.7 L 167.4 87.1 C 155.9 89.8 145.2 94.3 135.4 100.3 L 86.5 86.4 L 100.1 135.6 C 94.2 145.1 89.8 155.6 87.1 166.8 L 42.6 192 L 87 216.8 C 89.7 228.2 94.1 238.8 100.1 248.5 L 86.5 297.7 L 135.4 283.8 C 145.1 289.8 155.8 294.3 167.2 297 L 192 341.4 L 217.2 296.9 C 228.4 294.2 239 289.8 248.6 283.8 L 297.5 297.7 Z"
        fill="#e6e62e"/>
    <path
        id="middle_shadow"
        d="M 253.9 338.3 L 260.3 285.1 C 269.7 278.2 278.2 269.8 285.2 260 L 338.1 253.7 L 305.1 211.6 C 307 199.5 306.9 187.3 305 175.5 L 337.8 133.7 L 284.8 127.3 C 278 118 269.8 109.7 260.2 102.7 L 253.1 49.2 L 211.7 82.4 C 199.5 80.4 187.3 80.5 175.5 82.5 L 133.7 49.6 L 127.3 102.7 C 117.9 109.6 109.4 118 102.4 127.8 L 49.3 134.5 L 82.4 176.2 C 80.5 188.3 80.5 200.4 82.5 212.1 L 49.8 254.3 L 102.6 260.3 C 109.6 270 118.2 278.6 128.2 285.7 L 134.5 338.6 L 176.6 305.5 C 188.5 307.4 200.5 307.2 212.1 305.3 L 253.9 338.2 Z"
        fill="#000000"
        fill-opacity="0.24"/>
    <path
        id="middle"
        d="M 251.9 336.3 L 258.3 283.1 C 267.7 276.2 276.2 267.8 283.2 258 L 336.1 251.7 L 303.1 209.6 C 305 197.5 304.9 185.3 303 173.5 L 335.8 131.7 L 282.8 125.3 C 276 116 267.8 107.7 258.2 100.7 L 251.1 47.2 L 209.7 80.4 C 197.5 78.4 185.3 78.5 173.5 80.5 L 131.7 47.6 L 125.3 100.7 C 115.9 107.6 107.4 116 100.4 125.8 L 47.3 132.5 L 80.4 174.2 C 78.5 186.3 78.5 198.4 80.5 210.1 L 47.8 252.3 L 100.6 258.3 C 107.6 268 116.2 276.6 126.2 283.7 L 132.5 336.6 L 174.6 303.5 C 186.5 305.4 198.5 305.2 210.1 303.3 L 251.9 336.2 Z"
        fill="#e7c517"/>
    <path
        id="center_shadow"
        d="M 193 95.3 C 247.5 95.3 291.7 139.5 291.7 194 C 291.7 248.5 247.5 292.7 193 292.7 C 138.5 292.7 94.3 248.5 94.3 194 C 94.3 139.5 138.5 95.3 193 95.3 Z"
        fill="#000000"
        fill-opacity="0.24"/>
    <path
        id="center"
        d="M 192 93.3 C 246.5 93.3 290.7 137.5 290.7 192 C 290.7 246.5 246.5 290.7 192 290.7 C 137.5 290.7 93.3 246.5 93.3 192 C 93.3 137.5 137.5 93.3 192 93.3 Z"
        fill="#e6e62e"/>
</svg>
