<svg
    xmlns="http://www.w3.org/2000/svg"
    viewBox="0 0 384 384"
    id="art_light_rain">
    <path
        id="raindrop_outline_shadow"
        d="M 292 263.3 C 281.3 263.3 272.7 272 272.7 282.6 L 272.7 295.5 C 272.7 284.8 264 276.2 253.4 276.2 C 242.7 276.2 234.1 284.9 234.1 295.5 L 234.1 282.6 C 234.1 271.9 225.4 263.3 214.8 263.3 C 204.1 263.3 195.5 272 195.5 282.6 L 195.5 295.5 C 195.5 284.8 186.8 276.2 176.2 276.2 C 165.5 276.2 156.9 284.9 156.9 295.5 L 156.9 282.6 C 156.9 271.9 148.2 263.3 137.6 263.3 C 126.9 263.3 118.3 272 118.3 282.6 L 118.3 295.5 C 118.3 284.8 109.6 276.2 99 276.2 C 88.3 276.2 79.7 284.9 79.7 295.5 L 79.7 321.3 C 79.7 332 88.4 340.6 99 340.6 C 109.7 340.6 118.3 331.9 118.3 321.3 L 118.3 308.4 C 118.3 319.1 127 327.7 137.6 327.7 C 148.3 327.7 156.9 319 156.9 308.4 L 156.9 321.3 C 156.9 332 165.6 340.6 176.2 340.6 C 186.9 340.6 195.5 331.9 195.5 321.3 L 195.5 308.4 C 195.5 319.1 204.2 327.7 214.8 327.7 C 225.5 327.7 234.1 319 234.1 308.4 L 234.1 321.3 C 234.1 332 242.8 340.6 253.4 340.6 C 264.1 340.6 272.7 331.9 272.7 321.3 L 272.7 308.4 C 272.7 319.1 281.4 327.7 292 327.7 C 302.7 327.7 311.3 319 311.3 308.4 L 311.3 282.6 C 311.3 271.9 302.6 263.3 292 263.3 Z"
        fill="#000000"
        fill-opacity="0.24"/>
    <path
        id="raindrop_outline"
        d="M 290 261.3 C 279.3 261.3 270.7 270 270.7 280.6 L 270.7 293.5 C 270.7 282.8 262 274.2 251.4 274.2 C 240.7 274.2 232.1 282.9 232.1 293.5 L 232.1 280.6 C 232.1 269.9 223.4 261.3 212.8 261.3 C 202.1 261.3 193.5 270 193.5 280.6 L 193.5 293.5 C 193.5 282.8 184.8 274.2 174.2 274.2 C 163.5 274.2 154.9 282.9 154.9 293.5 L 154.9 280.6 C 154.9 269.9 146.2 261.3 135.6 261.3 C 124.9 261.3 116.3 270 116.3 280.6 L 116.3 293.5 C 116.3 282.8 107.6 274.2 97 274.2 C 86.3 274.2 77.7 282.9 77.7 293.5 L 77.7 319.3 C 77.7 330 86.4 338.6 97 338.6 C 107.7 338.6 116.3 329.9 116.3 319.3 L 116.3 306.4 C 116.3 317.1 125 325.7 135.6 325.7 C 146.3 325.7 154.9 317 154.9 306.4 L 154.9 319.3 C 154.9 330 163.6 338.6 174.2 338.6 C 184.9 338.6 193.5 329.9 193.5 319.3 L 193.5 306.4 C 193.5 317.1 202.2 325.7 212.8 325.7 C 223.5 325.7 232.1 317 232.1 306.4 L 232.1 319.3 C 232.1 330 240.8 338.6 251.4 338.6 C 262.1 338.6 270.7 329.9 270.7 319.3 L 270.7 306.4 C 270.7 317.1 279.4 325.7 290 325.7 C 300.7 325.7 309.3 317 309.3 306.4 L 309.3 280.6 C 309.3 269.9 300.6 261.3 290 261.3 Z"
        fill="#2f83b5"/>
    <path
        id="raindrops_shadow"
        d="M 137.8 274.9 C 134.2 274.9 131.4 277.8 131.4 281.5 L 131.4 307.7 C 131.4 311.3 134.3 314.3 137.8 314.3 C 141.4 314.3 144.2 311.4 144.2 307.7 L 144.2 281.5 C 144.2 277.9 141.3 274.9 137.8 274.9 Z M 215.1 274.9 C 211.5 274.9 208.7 277.8 208.7 281.5 L 208.7 307.7 C 208.7 311.3 211.6 314.3 215.1 314.3 C 218.7 314.3 221.5 311.4 221.5 307.7 L 221.5 281.5 C 221.5 277.9 218.6 274.9 215.1 274.9 Z M 292.4 274.9 C 288.8 274.9 286 277.8 286 281.5 L 286 307.7 C 286 311.3 288.9 314.3 292.4 314.3 C 296 314.3 298.8 311.4 298.8 307.7 L 298.8 281.5 C 298.8 277.9 295.9 274.9 292.4 274.9 Z M 99.1 288 C 95.5 288 92.7 290.9 92.7 294.6 L 92.7 320.8 C 92.7 324.4 95.6 327.4 99.1 327.4 C 102.7 327.4 105.5 324.5 105.5 320.8 L 105.5 294.6 C 105.5 291 102.6 288 99.1 288 Z M 176.4 288 C 172.8 288 170 290.9 170 294.6 L 170 320.8 C 170 324.4 172.9 327.4 176.4 327.4 C 180 327.4 182.8 324.5 182.8 320.8 L 182.8 294.6 C 182.8 291 179.9 288 176.4 288 Z M 253.7 288 C 250.1 288 247.3 290.9 247.3 294.6 L 247.3 320.8 C 247.3 324.4 250.2 327.4 253.7 327.4 C 257.3 327.4 260.1 324.5 260.1 320.8 L 260.1 294.6 C 260.1 291 257.2 288 253.7 288 Z"
        fill="#000000"
        fill-opacity="0.24"/>
    <path
        id="raindrops"
        d="M 135.8 272.9 C 132.2 272.9 129.4 275.8 129.4 279.5 L 129.4 305.7 C 129.4 309.3 132.3 312.3 135.8 312.3 C 139.4 312.3 142.2 309.4 142.2 305.7 L 142.2 279.5 C 142.2 275.9 139.3 272.9 135.8 272.9 Z M 213.1 272.9 C 209.5 272.9 206.7 275.8 206.7 279.5 L 206.7 305.7 C 206.7 309.3 209.6 312.3 213.1 312.3 C 216.7 312.3 219.5 309.4 219.5 305.7 L 219.5 279.5 C 219.5 275.9 216.6 272.9 213.1 272.9 Z M 290.4 272.9 C 286.8 272.9 284 275.8 284 279.5 L 284 305.7 C 284 309.3 286.9 312.3 290.4 312.3 C 294 312.3 296.8 309.4 296.8 305.7 L 296.8 279.5 C 296.8 275.9 293.9 272.9 290.4 272.9 Z M 97.1 286 C 93.5 286 90.7 288.9 90.7 292.6 L 90.7 318.8 C 90.7 322.4 93.6 325.4 97.1 325.4 C 100.7 325.4 103.5 322.5 103.5 318.8 L 103.5 292.6 C 103.5 289 100.6 286 97.1 286 Z M 174.4 286 C 170.8 286 168 288.9 168 292.6 L 168 318.8 C 168 322.4 170.9 325.4 174.4 325.4 C 178 325.4 180.8 322.5 180.8 318.8 L 180.8 292.6 C 180.8 289 177.9 286 174.4 286 Z M 251.7 286 C 248.1 286 245.3 288.9 245.3 292.6 L 245.3 318.8 C 245.3 322.4 248.2 325.4 251.7 325.4 C 255.3 325.4 258.1 322.5 258.1 318.8 L 258.1 292.6 C 258.1 289 255.2 286 251.7 286 Z"
        fill="#5cbce6"/>
    <path
        id="cloud_outline_shadow"
        d="M 294.8 130.6 C 291.1 81.9 251.4 44.7 201.4 44.7 C 159.9 44.7 125 67.5 114.6 99.6 C 112.6 99.4 110.7 99.3 108.7 99.3 C 67 99.3 33.1 133.1 33.1 174.6 C 33.1 216.1 67 249.9 108.7 249.9 L 293.4 249.5 C 326.3 249.5 353.1 222.8 353.1 190 C 353.1 157.6 327.1 131.2 294.8 130.5 Z"
        fill="#000000"
        fill-opacity="0.24"/>
    <path
        id="cloud_outline"
        d="M 292.8 128.6 C 289.1 79.9 249.4 42.7 199.4 42.7 C 157.9 42.7 123 65.5 112.6 97.6 C 110.6 97.4 108.7 97.3 106.7 97.3 C 65 97.3 31.1 131.1 31.1 172.6 C 31.1 214.1 65 247.9 106.7 247.9 L 291.4 247.5 C 324.3 247.5 351.1 220.8 351.1 188 C 351.1 155.6 325.1 129.2 292.8 128.5 Z"
        fill="#c5cbce"/>
    <path
        id="cloud_shadow"
        d="M 292.3 235.7 C 318.2 235.7 339.2 214.8 339.2 189 C 339.2 163.2 318.2 142.3 292.3 142.3 C 288.2 142.3 284.3 143 280.5 144 C 280.7 141.6 281.2 139.4 281.2 137 C 281.2 92.5 247 56.5 200.3 56.5 C 159.7 56.5 126.8 80.6 123.4 113.3 C 118.3 112 113.1 111.1 107.6 111.1 C 72.9 111.1 44.8 139.1 44.8 173.7 C 44.8 208.2 72.9 236.3 107.6 236.3 L 292.2 235.9 Z"
        fill="#000000"
        fill-opacity="0.24"/>
    <path
        id="cloud"
        d="M 290.3 233.7 C 316.2 233.7 337.2 212.8 337.2 187 C 337.2 161.2 316.2 140.3 290.3 140.3 C 286.2 140.3 282.3 141 278.5 142 C 278.7 139.6 279.2 137.4 279.2 135 C 279.2 90.5 245 54.5 198.3 54.5 C 157.7 54.5 124.8 78.6 121.4 111.3 C 116.3 110 111.1 109.1 105.6 109.1 C 70.9 109.1 42.8 137.1 42.8 171.7 C 42.8 206.2 70.9 234.3 105.6 234.3 L 290.2 233.9 Z"
        fill="#eeeeee"/>
</svg>
