<svg
    xmlns="http://www.w3.org/2000/svg"
    viewBox="0 0 384 384"
    id="art_clouds">
    <path
        id="cloud_back_outline_shadow"
        d="M 241.4 124.1 C 238.4 83.6 205.3 52.7 163.6 52.7 C 129 52.7 100 71.7 91.3 98.3 C 89.6 98.1 88 98.1 86.4 98.1 C 51.7 98.1 23.4 126.2 23.4 160.7 C 23.4 195.2 51.7 223.3 86.4 223.3 L 240.3 223 C 267.7 223 290.1 200.8 290.1 173.5 C 290.1 146.6 268.4 124.7 241.5 124 Z"
        fill="#000000"
        fill-opacity="0.24"/>
    <path
        id="cloud_back_outline"
        d="M 239.4 122.1 C 236.4 81.6 203.3 50.7 161.6 50.7 C 127 50.7 98 69.7 89.3 96.3 C 87.6 96.1 86 96.1 84.4 96.1 C 49.7 96.1 21.4 124.2 21.4 158.7 C 21.4 193.2 49.7 221.3 84.4 221.3 L 238.3 221 C 265.7 221 288.1 198.8 288.1 171.5 C 288.1 144.6 266.4 122.7 239.5 122 Z"
        fill="#c5cbce"/>
    <path
        id="cloud_back_front_shadow"
        d="M 239.3 211.5 C 260.9 211.5 278.4 194.1 278.4 172.7 C 278.4 151.2 260.9 133.9 239.3 133.9 C 235.9 133.9 232.6 134.5 229.4 135.3 C 229.6 133.3 230 131.5 230 129.5 C 230 92.5 201.5 62.6 162.6 62.6 C 128.8 62.6 101.3 82.6 98.5 109.8 C 94.3 108.7 89.9 107.9 85.4 107.9 C 56.5 107.9 33 131.2 33 159.9 C 33 188.6 56.4 211.9 85.4 211.9 L 239.3 211.6 Z"
        fill="#000000"
        fill-opacity="0.24"/>
    <path
        id="cloud_back_front"
        d="M 237.3 209.5 C 258.9 209.5 276.4 192.1 276.4 170.7 C 276.4 149.2 258.9 131.9 237.3 131.9 C 233.9 131.9 230.6 132.5 227.4 133.3 C 227.6 131.3 228 129.5 228 127.5 C 228 90.5 199.5 60.6 160.6 60.6 C 126.8 60.6 99.3 80.6 96.5 107.8 C 92.3 106.7 87.9 105.9 83.4 105.9 C 54.5 105.9 31 129.2 31 157.9 C 31 186.6 54.4 209.9 83.4 209.9 L 237.3 209.6 Z"
        fill="#eeeeee"/>
    <path
        id="cloud_2_under_shadow"
        d="M 294.5 182.3 C 279.2 158.1 253 143.3 224.4 143.3 C 195.8 143.3 169.6 158 154.3 182.2 C 129.7 183.6 107.9 197.9 96.6 219.8 C 72.3 227.2 55.4 249.9 55.4 276.3 C 55.4 311.3 78.8 335 113.6 335.3 L 289 335.3 C 330.8 335.3 364.8 300.9 364.8 258.7 C 364.8 218.3 333.8 185.2 294.6 182.3 Z M 224.4 156.5 C 237.6 156.5 250.3 160.3 261.1 167.1 C 250.3 160.3 237.6 156.5 224.4 156.5 C 211.1 156.5 198.5 160.3 187.7 167.1 C 198.5 160.3 211.2 156.5 224.4 156.5 Z M 68.4 276.2 C 68.4 279.6 68.7 282.9 69.2 286.1 C 68.7 283 68.4 279.7 68.4 276.2 Z M 288.9 322 L 201.3 322 L 288.9 322 C 323.5 322 351.6 293.6 351.6 258.6 C 351.6 232.4 335.8 209.8 313.3 200.2 C 305.8 197 297.6 195.2 288.9 195.2 C 297.5 195.2 305.8 197 313.3 200.2 C 335.8 209.8 351.6 232.4 351.6 258.6 C 351.6 293.6 323.5 322 288.9 322 Z"
        fill="#000000"
        fill-opacity="0.24"/>
    <path
        id="cloud_2_under"
        d="M 292.5 180.3 C 277.2 156.1 251 141.3 222.4 141.3 C 193.8 141.3 167.6 156 152.3 180.2 C 127.7 181.6 105.9 195.9 94.6 217.8 C 70.3 225.2 53.4 247.9 53.4 274.3 C 53.4 309.3 76.8 333 111.6 333.3 L 287 333.3 C 328.8 333.3 362.8 298.9 362.8 256.7 C 362.8 216.3 331.8 183.2 292.6 180.3 Z M 222.4 154.5 C 235.6 154.5 248.3 158.3 259.1 165.1 C 248.3 158.3 235.6 154.5 222.4 154.5 C 209.1 154.5 196.5 158.3 185.7 165.1 C 196.5 158.3 209.2 154.5 222.4 154.5 Z M 66.4 274.2 C 66.4 277.6 66.7 280.9 67.2 284.1 C 66.7 281 66.4 277.7 66.4 274.2 Z M 286.9 320 L 199.3 320 L 286.9 320 C 321.5 320 349.6 291.6 349.6 256.6 C 349.6 230.4 333.8 207.8 311.3 198.2 C 303.8 195 295.6 193.2 286.9 193.2 C 295.5 193.2 303.8 195 311.3 198.2 C 333.8 207.8 349.6 230.4 349.6 256.6 C 349.6 291.6 321.5 320 286.9 320 Z"
        fill="#c5cbce"/>
    <path
        id="cloud_2_shadow"
        d="M 289.2 194.6 C 288.5 194.6 287.8 194.6 287.1 194.6 C 275 170.7 250.6 155.2 223.8 155.2 C 196.9 155.2 172.6 170.7 160.5 194.6 C 159.3 194.5 158.2 194.5 157 194.5 C 133.2 194.5 112.4 209.1 103.7 230.8 C 82.3 234.6 65.9 253.7 65.9 276.6 C 65.9 304.6 83.9 322.8 111.7 323.1 L 289.1 323.1 C 324.1 323.1 352.6 294.2 352.6 258.8 C 352.6 223.3 324.1 194.5 289.1 194.5 Z"
        fill="#000000"
        fill-opacity="0.24"/>
    <path
        id="cloud_2"
        d="M 287.2 192.6 C 286.5 192.6 285.8 192.6 285.1 192.6 C 273 168.7 248.6 153.2 221.8 153.2 C 194.9 153.2 170.6 168.7 158.5 192.6 C 157.3 192.5 156.2 192.5 155 192.5 C 131.2 192.5 110.4 207.1 101.7 228.8 C 80.3 232.6 63.9 251.7 63.9 274.6 C 63.9 302.6 81.9 320.8 109.7 321.1 L 287.1 321.1 C 322.1 321.1 350.6 292.2 350.6 256.8 C 350.6 221.3 322.1 192.5 287.1 192.5 Z"
        fill="#eeeeee"/>
</svg>
