<svg
    xmlns="http://www.w3.org/2000/svg"
    viewBox="0 0 384 384"
    id="art_light_clouds">
    <path
        id="sun_bottom_shadow"
        d="M 214.5 235.9 L 204.3 198.9 C 208.7 191.8 212 183.9 214 175.5 L 247.4 156.9 L 214.1 138 C 212.1 129.4 208.7 121.4 204.2 114.1 L 214.6 77.5 L 177.7 87.7 C 170.7 83.4 162.9 80.1 154.7 78.1 L 135.4 44.6 L 116.9 77.9 C 108.3 79.9 100.2 83.3 92.9 87.8 L 56.2 77.4 L 66.4 114.3 C 62 121.4 58.7 129.3 56.7 137.7 L 23.3 156.6 L 56.6 175.2 C 58.6 183.7 61.9 191.7 66.4 199 L 56.2 235.9 L 92.9 225.5 C 100.2 230 108.2 233.4 116.8 235.4 L 135.4 268.7 L 154.3 235.3 C 162.7 233.3 170.7 229.9 177.8 225.5 L 214.5 235.9 Z"
        fill="#000000"
        fill-opacity="0.24"/>
    <path
        id="sun_bottom"
        d="M 212.5 233.9 L 202.3 196.9 C 206.7 189.8 210 181.9 212 173.5 L 245.4 154.9 L 212.1 136 C 210.1 127.4 206.7 119.4 202.2 112.1 L 212.6 75.5 L 175.7 85.7 C 168.7 81.4 160.9 78.1 152.7 76.1 L 133.4 42.6 L 114.9 75.9 C 106.3 77.9 98.2 81.3 90.9 85.8 L 54.2 75.4 L 64.4 112.3 C 60 119.4 56.7 127.3 54.7 135.7 L 21.3 154.6 L 54.6 173.2 C 56.6 181.7 59.9 189.7 64.4 197 L 54.2 233.9 L 90.9 223.5 C 98.2 228 106.2 231.4 114.8 233.4 L 133.4 266.7 L 152.3 233.3 C 160.7 231.3 168.7 227.9 175.8 223.5 L 212.5 233.9 Z"
        fill="#e5e52e"/>
    <path
        id="sun_middle_orange_shadow"
        d="M 180.2 264.9 L 185 225 C 192.1 219.8 198.4 213.5 203.7 206.2 L 243.4 201.4 L 218.6 169.8 C 220 160.7 220 151.6 218.5 142.7 L 243.1 111.3 L 203.3 106.5 C 198.2 99.5 192 93.3 184.9 88.1 L 179.6 48 L 148.5 72.9 C 139.4 71.4 130.2 71.5 121.4 72.9 L 90.1 48.2 L 85.3 88 C 78.2 93.2 71.9 99.5 66.6 106.8 L 26.8 111.8 L 51.7 143.1 C 50.3 152.1 50.3 161.2 51.7 170 L 27.2 201.7 L 66.8 206.2 C 72 213.4 78.5 219.9 86 225.2 L 90.7 264.9 L 122.3 240.1 C 131.3 241.5 140.2 241.4 148.9 240 L 180.3 264.7 Z"
        fill="#000000"
        fill-opacity="0.24"/>
    <path
        id="sun_middle_orange"
        d="M 178.2 262.9 L 183 223 C 190.1 217.8 196.4 211.5 201.7 204.2 L 241.4 199.4 L 216.6 167.8 C 218 158.7 218 149.6 216.5 140.7 L 241.1 109.3 L 201.3 104.5 C 196.2 97.5 190 91.3 182.9 86.1 L 177.6 46 L 146.5 70.9 C 137.4 69.4 128.2 69.5 119.4 70.9 L 88.1 46.2 L 83.3 86 C 76.2 91.2 69.9 97.5 64.6 104.8 L 24.8 109.8 L 49.7 141.1 C 48.3 150.1 48.3 159.2 49.7 168 L 25.2 199.7 L 64.8 204.2 C 70 211.4 76.5 217.9 84 223.2 L 88.7 262.9 L 120.3 238.1 C 129.3 239.5 138.2 239.4 146.9 238 L 178.3 262.7 Z"
        fill="#e5c416"/>
    <path
        id="sun_top_shadow"
        d="M 135.3 82.6 C 176.2 82.6 209.3 115.7 209.3 156.6 C 209.3 197.5 176.2 230.6 135.3 230.6 C 94.4 230.6 61.3 197.5 61.3 156.6 C 61.3 115.7 94.4 82.6 135.3 82.6 Z"
        fill="#000000"
        fill-opacity="0.24"/>
    <path
        id="sun_top"
        d="M 133.3 80.6 C 174.2 80.6 207.3 113.7 207.3 154.6 C 207.3 195.5 174.2 228.6 133.3 228.6 C 92.4 228.6 59.3 195.5 59.3 154.6 C 59.3 113.7 92.4 80.6 133.3 80.6 Z"
        fill="#e6e62e"/>
    <path
        id="cloud_outline_shadow"
        d="M 294.5 190.3 C 279.2 166.1 253 151.3 224.4 151.3 C 195.8 151.3 169.6 166 154.3 190.2 C 129.7 191.6 107.9 205.9 96.6 227.8 C 72.3 235.2 55.4 257.9 55.4 284.3 C 55.4 319.3 78.8 343 113.6 343.3 L 289 343.3 C 330.8 343.3 364.8 308.9 364.8 266.7 C 364.8 226.3 333.8 193.2 294.6 190.3 Z M 224.4 164.5 C 237.6 164.5 250.3 168.3 261.1 175.1 C 250.3 168.3 237.6 164.5 224.4 164.5 C 211.1 164.5 198.5 168.3 187.7 175.1 C 198.5 168.3 211.2 164.5 224.4 164.5 Z M 68.4 284.2 C 68.4 287.6 68.7 290.9 69.2 294.1 C 68.7 291 68.4 287.7 68.4 284.2 Z M 288.9 330 L 201.3 330 L 288.9 330 C 323.5 330 351.6 301.6 351.6 266.6 C 351.6 240.4 335.8 217.8 313.3 208.2 C 305.8 205 297.6 203.2 288.9 203.2 C 297.5 203.2 305.8 205 313.3 208.2 C 335.8 217.8 351.6 240.4 351.6 266.6 C 351.6 301.6 323.5 330 288.9 330 Z"
        fill="#000000"
        fill-opacity="0.24"/>
    <path
        id="cloud_outline"
        d="M 292.5 188.3 C 277.2 164.1 251 149.3 222.4 149.3 C 193.8 149.3 167.6 164 152.3 188.2 C 127.7 189.6 105.9 203.9 94.6 225.8 C 70.3 233.2 53.4 255.9 53.4 282.3 C 53.4 317.3 76.8 341 111.6 341.3 L 287 341.3 C 328.8 341.3 362.8 306.9 362.8 264.7 C 362.8 224.3 331.8 191.2 292.6 188.3 Z M 222.4 162.5 C 235.6 162.5 248.3 166.3 259.1 173.1 C 248.3 166.3 235.6 162.5 222.4 162.5 C 209.1 162.5 196.5 166.3 185.7 173.1 C 196.5 166.3 209.2 162.5 222.4 162.5 Z M 66.4 282.2 C 66.4 285.6 66.7 288.9 67.2 292.1 C 66.7 289 66.4 285.7 66.4 282.2 Z M 286.9 328 L 199.3 328 L 286.9 328 C 321.5 328 349.6 299.6 349.6 264.6 C 349.6 238.4 333.8 215.8 311.3 206.2 C 303.8 203 295.6 201.2 286.9 201.2 C 295.5 201.2 303.8 203 311.3 206.2 C 333.8 215.8 349.6 238.4 349.6 264.6 C 349.6 299.6 321.5 328 286.9 328 Z"
        fill="#c1c7ca"/>
    <path
        id="cloud_front_shadow"
        d="M 289.2 202.6 C 288.5 202.6 287.8 202.6 287.1 202.6 C 275 178.7 250.6 163.2 223.8 163.2 C 196.9 163.2 172.6 178.7 160.5 202.6 C 159.3 202.5 158.2 202.5 157 202.5 C 133.2 202.5 112.4 217.1 103.7 238.8 C 82.3 242.6 65.9 261.7 65.9 284.6 C 65.9 312.6 83.9 330.8 111.7 331.1 L 289.1 331.1 C 324.1 331.1 352.6 302.2 352.6 266.8 C 352.6 231.3 324.1 202.5 289.1 202.5 Z"
        fill="#000000"
        fill-opacity="0.24"/>
    <path
        id="cloud_front"
        d="M 287.2 200.6 C 286.5 200.6 285.8 200.6 285.1 200.6 C 273 176.7 248.6 161.2 221.8 161.2 C 194.9 161.2 170.6 176.7 158.5 200.6 C 157.3 200.5 156.2 200.5 155 200.5 C 131.2 200.5 110.4 215.1 101.7 236.8 C 80.3 240.6 63.9 259.7 63.9 282.6 C 63.9 310.6 81.9 328.8 109.7 329.1 L 287.1 329.1 C 322.1 329.1 350.6 300.2 350.6 264.8 C 350.6 229.3 322.1 200.5 287.1 200.5 Z"
        fill="#eeeeee"/>
</svg>
